<svg width="1920" height="1080" viewBox="0 0 1920 1080" fill="none" xmlns="http://www.w3.org/2000/svg">
<g clip-path="url(#clip0_972_801)">
<rect width="1920" height="1080" fill="#0D52DE"/>
<path fill-rule="evenodd" clip-rule="evenodd" d="M66 89.1755C66 70.3009 81.3009 55 100.176 55C112.849 55 123.911 61.8985 129.812 72.1454C135.713 61.8985 146.775 55 159.449 55C172.123 55 183.185 61.8985 189.086 72.1454C194.987 61.8985 206.049 55 218.722 55C231.396 55 242.458 61.8985 248.359 72.1454C254.26 61.8985 265.322 55 277.996 55C290.669 55 301.732 61.8985 307.633 72.1454C313.533 61.8985 324.596 55 337.269 55C349.943 55 361.005 61.8985 366.906 72.1454C372.807 61.8985 383.869 55 396.543 55C409.216 55 420.279 61.8985 426.179 72.1454C432.08 61.8985 443.143 55 455.816 55C468.49 55 479.552 61.8985 485.453 72.1454C491.354 61.8985 502.416 55 515.09 55C527.762 55 538.823 61.897 544.724 72.142C550.626 61.897 561.687 55 574.359 55C587.033 55 598.095 61.8985 603.996 72.1454C609.897 61.8985 620.959 55 633.633 55C646.306 55 657.368 61.8985 663.269 72.1454C669.17 61.8985 680.232 55 692.906 55C705.58 55 716.642 61.8985 722.543 72.1454C728.444 61.8985 739.506 55 752.179 55C764.853 55 775.915 61.8985 781.816 72.1454C787.717 61.8985 798.779 55 811.453 55C824.126 55 835.189 61.8985 841.09 72.1454C846.99 61.8985 858.053 55 870.726 55C883.4 55 894.462 61.8985 900.363 72.1454C906.264 61.8985 917.326 55 930 55C942.673 55 953.736 61.8986 959.637 72.1455C965.537 61.8986 976.6 55 989.273 55C1001.95 55 1013.01 61.8984 1018.91 72.1452C1024.81 61.8984 1035.87 55 1048.55 55C1061.22 55 1072.28 61.8986 1078.18 72.1454C1084.08 61.8986 1095.15 55 1107.82 55C1120.49 55 1131.56 61.8985 1137.46 72.1454C1143.36 61.8985 1154.42 55 1167.09 55C1179.77 55 1190.83 61.8985 1196.73 72.1454C1202.63 61.8985 1213.69 55 1226.37 55C1239.04 55 1250.1 61.8985 1256 72.1454C1261.9 61.8985 1272.97 55 1285.64 55C1298.31 55 1309.38 61.8985 1315.28 72.1454C1321.18 61.8985 1332.24 55 1344.91 55C1357.59 55 1368.65 61.8985 1374.55 72.1454C1380.45 61.8985 1391.51 55 1404.19 55C1416.86 55 1427.92 61.8985 1433.82 72.1454C1439.72 61.8985 1450.79 55 1463.46 55C1476.13 55 1487.19 61.897 1493.1 72.142C1499 61.897 1510.06 55 1522.73 55C1535.4 55 1546.47 61.8985 1552.37 72.1454C1558.27 61.8985 1569.33 55 1582 55C1594.68 55 1605.74 61.8985 1611.64 72.1454C1617.54 61.8985 1628.6 55 1641.28 55C1653.95 55 1665.01 61.8985 1670.91 72.1454C1676.81 61.8985 1687.88 55 1700.55 55C1713.22 55 1724.29 61.8985 1730.19 72.1454C1736.09 61.8985 1747.15 55 1759.82 55C1772.5 55 1783.56 61.8988 1789.46 72.1459C1795.36 61.8988 1806.42 55 1819.1 55C1837.97 55 1853.27 70.3009 1853.27 89.1755C1853.27 90.3809 1853.21 91.5717 1853.09 92.7449C1853.26 94.1373 1853.35 95.5557 1853.35 96.9949C1853.35 109.668 1846.45 120.731 1836.21 126.632C1846.45 132.532 1853.35 143.595 1853.35 156.268C1853.35 168.942 1846.45 180.004 1836.21 185.905C1846.45 191.806 1853.35 202.868 1853.35 215.541C1853.35 228.214 1846.45 239.277 1836.21 245.178C1846.45 251.078 1853.35 262.141 1853.35 274.814C1853.35 287.488 1846.45 298.55 1836.21 304.451C1846.45 310.352 1853.35 321.414 1853.35 334.088C1853.35 346.761 1846.45 357.823 1836.21 363.724C1846.45 369.625 1853.35 380.688 1853.35 393.361C1853.35 406.034 1846.45 417.096 1836.21 422.997C1846.45 428.898 1853.35 439.96 1853.35 452.634C1853.35 465.307 1846.45 476.37 1836.21 482.27C1846.45 488.171 1853.35 499.234 1853.35 511.907C1853.35 524.581 1846.45 535.643 1836.21 541.544C1846.45 547.445 1853.35 558.507 1853.35 571.18C1853.35 583.854 1846.45 594.916 1836.21 600.817C1846.45 606.718 1853.35 617.78 1853.35 630.454C1853.35 643.127 1846.45 654.189 1836.21 660.09C1846.45 665.991 1853.35 677.053 1853.35 689.726C1853.35 702.4 1846.45 713.462 1836.21 719.363C1846.45 725.264 1853.35 736.326 1853.35 749C1853.35 761.673 1846.45 772.736 1836.21 778.637C1846.45 784.537 1853.35 795.6 1853.35 808.273C1853.35 820.947 1846.45 832.009 1836.21 837.91C1846.45 843.811 1853.35 854.873 1853.35 867.547C1853.35 880.22 1846.45 891.282 1836.21 897.183C1846.45 903.084 1853.35 914.146 1853.35 926.819C1853.35 939.493 1846.45 950.555 1836.21 956.456C1846.45 962.357 1853.35 973.419 1853.35 986.093C1853.35 987.001 1853.32 987.901 1853.25 988.792C1853.26 989.251 1853.27 989.712 1853.27 990.176C1853.27 1009.05 1837.97 1024.35 1819.1 1024.35C1806.42 1024.35 1795.36 1017.45 1789.46 1007.21C1783.56 1017.45 1772.5 1024.35 1759.82 1024.35C1747.15 1024.35 1736.09 1017.45 1730.19 1007.21C1724.29 1017.45 1713.22 1024.35 1700.55 1024.35C1687.88 1024.35 1676.81 1017.45 1670.91 1007.21C1665.01 1017.45 1653.95 1024.35 1641.28 1024.35C1628.6 1024.35 1617.54 1017.45 1611.64 1007.21C1605.74 1017.45 1594.68 1024.35 1582 1024.35C1569.33 1024.35 1558.27 1017.45 1552.37 1007.21C1546.47 1017.45 1535.4 1024.35 1522.73 1024.35C1510.06 1024.35 1499 1017.45 1493.1 1007.21C1487.19 1017.45 1476.13 1024.35 1463.46 1024.35C1450.79 1024.35 1439.72 1017.45 1433.82 1007.21C1427.92 1017.45 1416.86 1024.35 1404.19 1024.35C1391.51 1024.35 1380.45 1017.45 1374.55 1007.21C1368.65 1017.45 1357.59 1024.35 1344.91 1024.35C1332.24 1024.35 1321.18 1017.45 1315.28 1007.21C1309.38 1017.45 1298.31 1024.35 1285.64 1024.35C1272.97 1024.35 1261.9 1017.45 1256 1007.21C1250.1 1017.45 1239.04 1024.35 1226.37 1024.35C1213.69 1024.35 1202.63 1017.45 1196.73 1007.21C1190.83 1017.45 1179.77 1024.35 1167.09 1024.35C1154.42 1024.35 1143.36 1017.45 1137.46 1007.21C1131.56 1017.45 1120.49 1024.35 1107.82 1024.35C1095.15 1024.35 1084.08 1017.45 1078.18 1007.21C1072.28 1017.45 1061.22 1024.35 1048.55 1024.35C1035.87 1024.35 1024.81 1017.45 1018.91 1007.21C1013.01 1017.45 1001.95 1024.35 989.273 1024.35C976.6 1024.35 965.537 1017.45 959.637 1007.21C953.736 1017.45 942.673 1024.35 930 1024.35C917.326 1024.35 906.264 1017.45 900.363 1007.21C894.462 1017.45 883.4 1024.35 870.726 1024.35C858.053 1024.35 846.99 1017.45 841.09 1007.21C835.189 1017.45 824.126 1024.35 811.453 1024.35C798.779 1024.35 787.717 1017.45 781.816 1007.21C775.915 1017.45 764.853 1024.35 752.179 1024.35C739.506 1024.35 728.444 1017.45 722.543 1007.21C716.642 1017.45 705.58 1024.35 692.906 1024.35C680.232 1024.35 669.17 1017.45 663.269 1007.21C657.368 1017.45 646.306 1024.35 633.633 1024.35C620.959 1024.35 609.897 1017.45 603.996 1007.21C598.095 1017.45 587.033 1024.35 574.359 1024.35C561.687 1024.35 550.626 1017.45 544.724 1007.21C538.823 1017.45 527.762 1024.35 515.09 1024.35C502.416 1024.35 491.354 1017.45 485.453 1007.21C479.552 1017.45 468.49 1024.35 455.816 1024.35C443.143 1024.35 432.08 1017.45 426.179 1007.21C420.279 1017.45 409.216 1024.35 396.543 1024.35C383.869 1024.35 372.807 1017.45 366.906 1007.21C361.005 1017.45 349.943 1024.35 337.269 1024.35C324.596 1024.35 313.533 1017.45 307.633 1007.21C301.732 1017.45 290.669 1024.35 277.996 1024.35C265.322 1024.35 254.26 1017.45 248.359 1007.21C242.458 1017.45 231.396 1024.35 218.722 1024.35C206.049 1024.35 194.987 1017.45 189.086 1007.21C183.185 1017.45 172.123 1024.35 159.449 1024.35C147.698 1024.35 137.332 1018.42 131.181 1009.39C128.62 1012.14 125.612 1014.46 122.272 1016.25C116.314 1021.3 108.601 1024.35 100.176 1024.35C81.3009 1024.35 66 1009.05 66 990.176C66 977.121 73.3199 965.776 84.0793 960.02C85.6521 958.686 87.3473 957.491 89.1456 956.456C78.8986 950.555 72 939.493 72 926.819C72 914.146 78.8982 903.084 89.1446 897.183C78.8982 891.282 72 880.22 72 867.547C72 854.873 78.8986 843.811 89.1454 837.91C78.8986 832.009 72 820.947 72 808.273C72 795.6 78.8984 784.537 89.1452 778.637C78.8984 772.736 72 761.673 72 749C72 736.326 78.8986 725.264 89.1456 719.363C78.8986 713.462 72 702.4 72 689.726C72 677.053 78.8982 665.991 89.1446 660.09C78.8982 654.189 72 643.127 72 630.454C72 617.78 78.8986 606.718 89.1454 600.817C78.8986 594.916 72 583.854 72 571.18C72 558.507 78.8985 547.445 89.1452 541.544C78.8985 535.643 72 524.581 72 511.907C72 499.234 78.8986 488.171 89.1456 482.27C78.8986 476.37 72 465.307 72 452.634C72 439.96 78.8982 428.898 89.1446 422.997C78.8982 417.096 72 406.034 72 393.361C72 380.688 78.8986 369.625 89.1455 363.724C78.8986 357.823 72 346.761 72 334.088C72 321.414 78.8985 310.352 89.1452 304.451C78.8985 298.55 72 287.488 72 274.814C72 262.141 78.8986 251.078 89.1456 245.178C78.8987 239.277 72 228.214 72 215.541C72 202.868 78.8982 191.806 89.1446 185.905C78.8982 180.004 72 168.941 72 156.268C72 143.595 78.8986 132.532 89.1454 126.632C83.7903 123.548 79.3497 119.054 76.3303 113.658C69.9577 107.45 66 98.7748 66 89.1755ZM1802.15 956.456L1802 956.54V956.372L1802.15 956.456ZM1802 897.099L1802.14 897.183L1802 897.267V897.099ZM1802 837.994L1802.15 837.91L1802 837.826V837.994ZM1802 778.552L1802.15 778.637L1802 778.721V778.552ZM1802 719.447L1802.15 719.363L1802 719.279V719.447ZM1802 660.006L1802.14 660.09L1802 660.174V660.006ZM1802 600.901L1802.15 600.817L1802 600.733V600.901ZM1802 541.46L1802.15 541.544L1802 541.628V541.46ZM1802 482.355L1802.15 482.27L1802 482.186V482.355ZM1802 422.914L1802.14 422.997L1802 423.081V422.914ZM1802 363.809L1802.15 363.724L1802 363.64V363.809ZM1802 304.367L1802.15 304.451L1802 304.535V304.367ZM1802 245.262L1802.15 245.178L1802 245.093V245.262ZM1802 185.821L1802.14 185.905L1802 185.988V185.821ZM1802 126.716L1802.15 126.632L1802 126.547V126.716Z" fill="#F0E5FF"/>
<path opacity="0.04" d="M-29.7231 265.632C2.17914 250.44 48.6534 237.693 111.214 239.636C84.2865 267.526 49.7912 284.952 16.9192 285.803C-4.98013 286.598 -19.7831 280.739 -28.2187 267.588C-28.9478 266.952 -29.6769 266.315 -29.7231 265.632ZM252.803 324.734C274.504 402.16 229.807 512.204 152.78 570.237C82.3045 623.712 -25.503 632.374 -87.3736 589.908C-116.851 569.948 -146.938 530.821 -125.108 457.997C-112.808 416.69 -91.3904 388.486 -65.1824 370.249L-56.6278 364.868C17.7701 318.675 118.141 342.073 123.743 343.752C129.299 344.748 134.577 341.647 135.574 336.092C137.253 330.49 134.152 325.211 128.596 324.215C127.184 323.624 10.9214 298.557 -73.3046 351.589C-86.4548 360.025 -141.391 379.519 -179.109 359.43C-201.203 347.204 -214.568 322.038 -219.11 285.3C-231.547 182.55 -150.396 104.342 -70.0726 64.6088C10.8871 24.1462 93.6578 20.6069 129.66 55.904C161.925 86.6517 169.071 131.447 150.358 179.362C145.182 194.119 137.227 208.378 127.769 220.68C54.0508 216.061 0.747499 229.27 -36.5256 246.197C-42.0646 215.014 -29.8115 173.023 -23.3616 156.809C-21.6824 151.207 -24.1006 145.882 -29.0657 143.474C-33.9846 141.748 -39.3555 143.483 -41.7639 148.449L-110.138 304C-112.593 308.282 -110.129 314.29 -105.846 316.744C-101.564 319.199 -97.513 318.239 -93.0559 313.135C-92.4192 312.406 -79.2788 293.68 -47.6075 275.074C-46.8322 276.393 -46.0569 277.713 -45.2816 279.033C-32.3791 297.369 -11.199 306.227 17.5756 305.653C60.7374 304.793 105.015 279.845 136.712 241.342C139.49 241.84 142.222 241.656 144.317 242.2C201.645 247.928 239.234 276.257 252.803 324.734ZM749.939 221.825C771.791 362.357 730.011 474.947 683.216 533.68C659.842 563.389 632.268 581.718 611.734 582.421C598.713 582.615 588.829 578.481 580.034 570.158C556.379 545.002 557.696 493.46 557.65 492.778C557.327 487.997 554.318 484.084 550.128 482.996C548.716 482.405 548.033 482.451 546.667 482.544C543.253 482.775 539.977 485.054 538.159 488.607C538.205 489.29 503.353 562.309 443 582.855C358.616 613.259 301.654 562.228 285.499 475.508C268.015 379.274 283.987 179.244 347.106 98.14C365.432 74.9476 385.319 64.6843 406.674 65.9843C492.915 73.1868 485.362 316.553 480.06 390.317C477.81 417.911 476.279 435.851 476.279 435.851C475.965 441.361 479.703 445.91 485.259 446.907C490.768 447.22 495.271 442.799 496.314 437.927C496.268 437.244 497.116 419.349 499.412 392.439C505.315 327.553 519.954 209.251 548.217 150.399C566.211 112.136 606.021 82.0028 642.898 79.5089C695.482 75.9529 734.642 127.501 749.939 221.825ZM1338.3 244.466C1359.91 371.293 1345.2 508.808 1264.36 530.74C1255.62 533.389 1248.16 534.58 1240.64 535.088C1218.79 536.566 1201.94 530.845 1187.95 516.699C1150.49 480.128 1145.49 396.084 1151.44 331.881C1155.31 287.713 1160.33 250.327 1160.33 250.327C1160.64 244.818 1156.91 240.268 1151.35 239.272C1146.52 238.912 1141.29 242.696 1140.93 247.523C1140.34 248.935 1136.55 284.179 1131.4 329.805C1119.48 427.343 1096.02 465.975 1081.77 468.31C1075.67 469.409 1049.21 463.652 993.623 372.052C975.108 341.747 962.519 317.901 961.79 317.264C958.735 312.669 952.497 311.718 947.855 314.09C943.942 317.099 942.263 322.701 944.635 327.343C944.727 328.709 960.002 351.687 976.467 382.131C1010.08 442.973 1019.6 492.41 1009.2 521.24C1004.52 533.219 996.152 541.331 983.5 546.989C954.827 559.219 915.199 541.318 877.415 499.967C812.193 428.228 752.411 284.773 775.446 138.463C785.944 70.5214 815.64 32.8395 860.029 29.8377C935.149 24.7576 1039.82 121.956 1051.09 237.82C1051.46 243.283 1055.2 247.832 1062.03 247.371C1062.03 247.371 1071.63 247.407 1070.89 236.48C1070.76 234.432 1058.33 -0.0373236 1188.44 -13.6385C1188.44 -13.6385 1189.13 -13.6847 1189.81 -13.7309C1254.69 -18.1181 1316.46 114.225 1338.3 244.466ZM1919.84 205.139C1941.45 331.966 1926.74 469.482 1845.9 491.413C1837.16 494.062 1829.7 495.253 1822.18 495.761C1800.33 497.239 1783.48 491.518 1769.49 477.372C1732.03 440.801 1727.03 356.757 1732.98 292.554C1736.85 248.386 1741.87 211 1741.87 211C1742.18 205.491 1738.45 200.942 1732.89 199.945C1728.06 199.586 1722.83 203.37 1722.47 208.196C1721.88 209.608 1718.09 244.852 1712.94 290.478C1701.02 388.016 1677.56 426.648 1663.31 428.983C1657.21 430.082 1630.75 424.325 1575.16 332.725C1556.65 302.42 1544.06 278.574 1543.33 277.937C1540.28 273.342 1534.04 272.392 1529.4 274.764C1525.48 277.772 1523.8 283.374 1526.18 288.016C1526.27 289.382 1541.54 312.36 1558.01 342.804C1591.62 403.646 1601.14 453.083 1590.74 481.913C1586.06 493.892 1577.69 502.005 1565.04 507.662C1536.37 519.892 1496.74 501.991 1458.96 460.64C1393.73 388.901 1333.95 245.446 1356.99 99.1356C1367.48 31.1945 1397.18 -6.4874 1441.57 -9.48924C1516.69 -14.5693 1621.37 82.629 1632.63 198.493C1633 203.956 1636.74 208.506 1643.57 208.044C1643.57 208.044 1653.17 208.08 1652.44 197.154C1652.3 195.105 1639.87 -39.3642 1769.98 -52.9654C1769.98 -52.9654 1770.67 -53.0116 1771.35 -53.0578C1836.23 -57.4451 1898 74.898 1919.84 205.139ZM2501.38 165.812C2522.99 292.639 2508.28 430.155 2427.44 452.086C2418.7 454.735 2411.24 455.926 2403.72 456.434C2381.87 457.912 2365.02 452.191 2351.03 438.045C2313.57 401.474 2308.57 317.43 2314.52 253.227C2318.39 209.059 2323.41 171.674 2323.41 171.674C2323.72 166.164 2319.99 161.615 2314.43 160.618C2309.6 160.259 2304.37 164.043 2304.01 168.869C2303.42 170.281 2299.63 205.525 2294.48 251.151C2282.56 348.689 2259.1 387.321 2244.85 389.656C2238.75 390.755 2212.29 384.998 2156.7 293.398C2138.19 263.093 2125.6 239.247 2124.87 238.61C2121.82 234.015 2115.58 233.065 2110.94 235.437C2107.02 238.445 2105.34 244.047 2107.72 248.689C2107.81 250.055 2123.08 273.033 2139.55 303.477C2173.16 364.319 2182.68 413.756 2172.28 442.586C2167.6 454.565 2159.23 462.678 2146.58 468.335C2117.91 480.565 2078.28 462.664 2040.5 421.313C1975.27 349.574 1915.49 206.12 1938.53 59.8087C1949.03 -8.13244 1978.72 -45.8143 2023.11 -48.8161C2098.23 -53.8962 2202.91 43.3021 2214.17 159.166C2214.54 164.629 2218.28 169.179 2225.11 168.717C2225.11 168.717 2234.71 168.753 2233.98 157.827C2233.84 155.778 2221.41 -78.6911 2351.52 -92.2923C2351.52 -92.2923 2352.21 -92.3385 2352.89 -92.3847C2417.77 -96.772 2479.54 35.5711 2501.38 165.812ZM237.128 721.899C240.027 754.633 210.728 777.881 157.101 786.31C113.672 793.363 74.8848 798.044 42.1052 800.261C28.4469 801.185 16.1546 802.016 5.18184 802.072L-36.1622 799.38C-41.6255 799.749 -45.4921 803.441 -45.8055 808.95C-46.1652 813.777 -43.1102 818.372 -38.2375 819.415L3.78947 822.061C45.2721 826.802 70.0514 838.161 72.4332 853.093C74.2245 869.436 46.291 892.593 -4.31705 915.224L-87.3354 945.535C-91.9772 947.907 -94.3394 953.555 -92.6503 958.243C-90.2783 962.885 -85.267 965.976 -79.8961 964.241L3.12224 933.93C47.4554 919.955 88.0605 911.721 122.206 909.412C177.522 905.671 215.323 916.835 234.972 943.634C259.909 977.621 262.957 1022.69 241.965 1067.33C210.25 1136.02 132.576 1184.5 44.4809 1190.45L23.9474 1191.16C-36.4258 1191.12 -83.5662 1173.73 -116.062 1139.57C-159.679 1093.12 -178.648 1015.51 -173.293 901.954C-167.947 778.106 -104.528 630.437 55.2731 619.63C58.6877 619.399 62.1022 619.168 66.1997 618.891C158.67 616.754 232.344 671.457 237.128 721.899ZM757.179 972.121C772.068 1019.82 757.35 1055.81 742.392 1078.08C716.157 1116.22 668.604 1143.44 620.8 1146.68C600.996 1148.02 582.963 1145.12 568.068 1137.89C492.226 1101.86 454.64 982.289 450.302 968.862C449.481 966.86 449.388 965.494 449.388 965.494C448.428 961.442 444.1 958.305 439.319 958.628C438.637 958.674 437.954 958.721 437.317 959.45C431.9 960.502 428.855 966.196 430.59 971.567C430.59 971.567 430.636 972.25 430.775 974.299C434.199 984.358 458.097 1073.98 428.319 1120.59C418.362 1135.67 404.575 1144.83 384.863 1147.54C382.861 1148.36 380.129 1148.55 378.08 1148.68C356.91 1150.12 337.779 1141.12 321.369 1121.65C272.187 1063.92 257.118 922.241 287.454 792.588C315.613 671.314 448.675 599.886 565.453 591.989C613.256 588.756 652.238 597.097 676.067 614.694C710.694 639.794 725.988 683.352 716.606 727.206C702.195 798.156 631.267 855.091 527.208 878.593C515.69 880.744 508.954 882.572 508.954 882.572C503.583 884.307 500.491 889.318 501.544 894.735C502.596 900.153 507.607 903.244 513.025 902.191C519.125 901.093 525.225 899.994 531.325 898.896C542.842 896.745 560.459 893.495 581.629 892.064C648.554 887.538 733.614 897.564 757.179 972.121ZM465.845 843.639L471.837 729.352C472.15 723.843 467.73 719.34 462.22 719.026C456.711 718.713 452.207 723.133 451.894 728.643L445.856 842.247C445.542 847.756 449.963 852.259 455.472 852.573C456.155 852.527 456.155 852.527 456.838 852.48C461.619 852.157 465.485 848.466 465.845 843.639ZM1065.08 825.069C1070.54 824.699 1075.32 824.376 1080.83 824.689C1056.6 862.002 1028.71 885.841 1002.26 890.374C980.547 893.9 962.828 885.494 949.741 864.426C984.55 841.491 1024.79 827.793 1065.08 825.069ZM1182.13 872.035C1198.55 901.796 1192.36 952.295 1166.14 1000.72C1135.69 1057.66 1071.37 1121.01 984.64 1126.87C966.201 1128.12 947.578 1126.64 928.77 1122.42C759.59 1085.84 761.778 945.74 783.98 736.371C796.662 619.574 902.372 559.6 994.565 553.366C1045.1 549.948 1087.82 562.838 1108.74 588.179C1146.9 634.993 1130.23 733.536 1092.51 804.691C1082.91 804.654 1073.3 804.618 1063.74 805.264C1020.71 808.174 977.793 822.739 940.982 846.495C922.135 801.12 922.712 738.652 922.666 737.969C922.98 732.459 919.242 727.91 913.732 727.596C908.906 727.237 904.31 730.292 903.314 735.847L867.158 921.463C866.115 926.336 869.17 930.932 873.406 932.703C877.642 934.475 883.059 933.422 885.514 929.14C898.562 909.049 914.526 891.505 933.407 876.507C953.287 906.72 979.017 911.841 997.455 910.594C1000.19 910.409 1002.92 910.224 1005.65 910.039C1039.56 904.316 1075.23 873.776 1102.87 825.943C1140.25 830.961 1167.45 847.645 1182.13 872.035ZM1664.17 750.939C1687.16 847.487 1680.46 930.95 1647.77 975.009C1632.08 996.651 1610.23 1008.42 1583.6 1010.22C1491.41 1016.45 1480.34 873.136 1480.25 871.77C1479.93 866.99 1476.24 863.123 1471.41 862.763C1465.9 862.45 1461.99 865.459 1460.95 870.331C1460.35 871.743 1432.7 1000.53 1379.53 1056.26C1363.52 1073.13 1342.95 1083.43 1321.78 1084.87C1277.39 1087.87 1223.5 1051.72 1216.06 941.775C1211.03 867.337 1238.52 766.689 1287.43 678.314C1335.74 591.35 1393.01 535.339 1437.4 532.337C1534.38 525.779 1634.18 621.935 1664.17 750.939ZM1483.37 796.096L1489.36 681.809C1489.67 676.3 1485.25 671.796 1479.74 671.483C1474.23 671.169 1469.73 675.59 1469.42 681.1L1463.38 794.703C1463.06 800.213 1467.53 805.399 1473.04 805.712C1473.72 805.666 1473.72 805.666 1474.41 805.62C1479.19 805.297 1483.01 800.922 1483.37 796.096ZM2255.99 737.672C2277.61 864.499 2262.89 1002.01 2182.05 1023.95C2173.31 1026.6 2165.85 1027.79 2158.34 1028.29C2136.48 1029.77 2119.63 1024.05 2105.64 1009.9C2068.18 973.334 2063.18 889.29 2069.13 825.087C2073 780.918 2078.02 743.533 2078.02 743.533C2078.34 738.024 2074.6 733.474 2069.04 732.478C2064.22 732.118 2058.98 735.902 2058.62 740.729C2058.03 742.141 2054.24 777.385 2049.1 823.011C2037.17 920.548 2013.71 959.181 1999.46 961.516C1993.36 962.615 1966.9 956.858 1911.32 865.258C1892.8 834.953 1880.21 811.107 1879.48 810.47C1876.43 805.875 1870.19 804.924 1865.55 807.296C1861.64 810.305 1859.96 815.907 1862.33 820.549C1862.42 821.915 1877.69 844.893 1894.16 875.337C1927.77 936.179 1937.29 985.616 1926.89 1014.45C1922.21 1026.43 1913.84 1034.54 1901.19 1040.2C1872.52 1052.42 1832.89 1034.52 1795.11 993.173C1729.89 921.434 1670.1 777.979 1693.14 631.668C1703.64 563.727 1733.33 526.045 1777.72 523.044C1852.84 517.964 1957.52 615.162 1968.78 731.026C1969.15 736.489 1972.89 741.038 1979.72 740.577C1979.72 740.577 1989.33 740.613 1988.59 729.686C1988.45 727.638 1976.02 493.169 2106.14 479.567C2106.14 479.567 2106.82 479.521 2107.5 479.475C2172.38 475.088 2234.15 607.431 2255.99 737.672ZM2635.42 460.925C2691.09 492.834 2719.09 541.707 2716.05 598.168C2712.24 663.598 2665.86 728.478 2602.51 755.401C2563.87 772.421 2531.6 782.149 2505.65 783.904C2495.4 784.597 2488.48 783.693 2483.61 782.65C2478.74 781.608 2476.64 781.064 2476.64 781.064C2471.04 779.384 2466.21 779.025 2463.08 783.353C2459.89 786.998 2460.31 793.145 2464.68 796.965C2495.94 822.979 2574.01 902.081 2561.72 953.679C2557.05 975.947 2534.8 991.859 2497.02 1001.27C2444.45 1015.12 2387.31 1012.12 2346.74 970.275C2295.88 918.146 2274.57 815.996 2286.73 681.397C2300.97 526.762 2411.62 438.328 2514.05 431.401C2556.39 428.538 2598.25 438.742 2635.42 460.925ZM2480.46 725.923L2485.82 612.365C2486.13 606.856 2481.71 602.352 2476.2 602.039C2470.69 601.725 2466.14 605.463 2465.83 610.973L2460.52 725.213C2460.2 730.723 2464.62 735.226 2470.13 735.539L2470.82 735.493C2476.28 735.124 2480.15 731.432 2480.46 725.923Z" fill="#8425FF"/>
<path d="M594.214 517.3C595.431 515.861 596.04 514.146 596.04 512.154C596.04 510.162 595.431 508.391 594.214 506.842C593.107 505.182 591.447 504.352 589.234 504.352H575.29V519.458H589.234C591.447 519.458 593.107 518.739 594.214 517.3ZM575.29 547.18V563.448H590.728C593.273 563.448 595.155 562.618 596.372 560.958C597.7 559.187 598.364 557.251 598.364 555.148V554.982C598.364 552.879 597.645 551.053 596.206 549.504C594.878 547.955 593.052 547.18 590.728 547.18H575.29ZM595.044 592H538.272C537.055 592 536.003 591.557 535.118 590.672C534.233 589.787 533.79 588.735 533.79 587.518V480.282C533.79 479.065 534.233 478.013 535.118 477.128C536.003 476.243 537.055 475.8 538.272 475.8L593.384 475.8C609.099 475.8 620.663 478.677 628.078 484.432C635.603 490.076 639.366 498.653 639.366 510.162V510.66C639.366 515.419 637.983 519.679 635.216 523.442C632.449 527.094 629.406 529.75 626.086 531.41C630.513 533.181 634.22 536.335 637.208 540.872C640.307 545.299 641.856 550.168 641.856 555.48C641.856 579.827 626.252 592 595.044 592ZM650.963 567.266C650.963 552.326 663.081 542.753 687.317 538.548L704.913 535.726C704.913 532.406 704.636 530.193 704.083 529.086C703.529 527.869 702.201 527.26 700.099 527.26C698.107 527.26 696.115 528.145 694.123 529.916C692.131 531.687 690.249 532.572 688.479 532.572H660.259C657.824 532.572 656.607 531.41 656.607 529.086C656.607 526.651 657.437 524.106 659.097 521.45C660.867 518.683 663.357 515.972 666.567 513.316C669.887 510.66 674.479 508.447 680.345 506.676C686.321 504.905 692.961 504.02 700.265 504.02C715.094 504.02 726.216 507.119 733.631 513.316C741.045 519.513 744.753 528.367 744.753 539.876V587.518C744.753 588.735 744.31 589.787 743.425 590.672C742.539 591.557 741.488 592 740.271 592H711.221C710.003 592 708.952 591.557 708.067 590.672C707.181 589.787 706.739 588.735 706.739 587.518V582.87C701.537 590.063 693.957 593.66 683.997 593.66C674.037 593.66 666.013 591.17 659.927 586.19C653.951 581.099 650.963 574.791 650.963 567.266ZM694.621 569.092C701.814 569.092 705.411 564.776 705.411 556.144L695.617 558.302C690.747 559.409 688.313 561.456 688.313 564.444C688.313 565.772 688.866 566.879 689.973 567.764C691.079 568.649 692.629 569.092 694.621 569.092ZM803.107 568.096C803.107 566.989 802.83 566.104 802.277 565.44C800.838 563.669 795.526 561.954 786.341 560.294C777.155 558.523 769.685 555.48 763.931 551.164C758.287 546.737 755.465 540.595 755.465 532.738C755.465 524.881 759.227 518.13 766.753 512.486C774.278 506.842 784.404 504.02 797.131 504.02C809.968 504.02 820.481 506.676 828.671 511.988C836.86 517.3 840.955 522.667 840.955 528.09C840.955 529.307 840.567 530.359 839.793 531.244C839.129 532.129 838.299 532.572 837.303 532.572H809.415C807.755 532.572 805.707 531.687 803.273 529.916C800.838 528.145 799.012 527.26 797.795 527.26C795.249 527.26 793.977 528.145 793.977 529.916C793.977 531.023 794.253 531.908 794.807 532.572C796.245 534.232 802.277 535.837 812.901 537.386C823.525 538.935 831.437 542.366 836.639 547.678C841.951 552.879 844.607 558.689 844.607 565.108C844.607 574.072 840.567 581.099 832.489 586.19C824.41 591.281 812.956 593.826 798.127 593.826C790.269 593.826 783.297 592.941 777.211 591.17C771.124 589.399 766.476 587.186 763.267 584.53C756.959 579.329 753.805 574.459 753.805 569.922C753.805 568.705 754.192 567.653 754.967 566.768C755.741 565.883 756.682 565.44 757.789 565.44H786.673C788.222 565.44 790.214 566.325 792.649 568.096C795.194 569.756 797.573 570.586 799.787 570.586C802 570.586 803.107 569.756 803.107 568.096ZM941.636 558.634H892.168V559.464C892.168 566.215 894.326 569.59 898.642 569.59C899.86 569.59 901.354 568.705 903.124 566.934C904.895 565.163 906.832 564.278 908.934 564.278H940.308C942.743 564.278 943.96 565.495 943.96 567.93C943.96 573.353 939.866 578.997 931.676 584.862C923.598 590.727 912.586 593.66 898.642 593.66C884.809 593.66 873.466 590.063 864.612 582.87C855.87 575.566 851.498 565.551 851.498 552.824V544.856C851.498 532.793 855.98 522.999 864.944 515.474C873.908 507.838 885.639 504.02 900.136 504.02C914.744 504.02 926.032 508.281 934 516.802C942.079 525.323 946.118 536.113 946.118 549.172V554.152C946.118 555.369 945.676 556.421 944.79 557.306C943.905 558.191 942.854 558.634 941.636 558.634ZM905.448 537.22C905.448 530.58 903.235 527.26 898.808 527.26C894.382 527.26 892.168 530.58 892.168 537.22V537.884H905.448V537.22ZM1013.62 505.68H1029.06C1032.05 505.68 1033.93 507.008 1034.7 509.664L1045.49 544.192L1055.62 509.664C1056.39 507.008 1058.28 505.68 1061.26 505.68H1086.83C1087.93 505.68 1088.88 506.067 1089.65 506.842C1090.42 507.617 1090.81 508.391 1090.81 509.166C1090.81 509.941 1090.76 510.549 1090.65 510.992L1066.41 587.85C1065.52 590.617 1063.7 592 1060.93 592H1038.69C1035.92 592 1034.1 590.617 1033.21 587.85L1021.42 554.318L1009.47 587.85C1008.59 590.617 1006.76 592 1003.99 592H981.75C978.983 592 977.157 590.617 976.272 587.85L952.036 510.992C951.925 510.549 951.87 509.941 951.87 509.166C951.87 508.391 952.257 507.617 953.032 506.842C953.807 506.067 954.747 505.68 955.854 505.68H981.418C984.406 505.68 986.287 507.008 987.062 509.664L997.188 544.192L1007.98 509.664C1008.75 507.008 1010.63 505.68 1013.62 505.68ZM1096.61 567.266C1096.61 552.326 1108.73 542.753 1132.97 538.548L1150.56 535.726C1150.56 532.406 1150.29 530.193 1149.73 529.086C1149.18 527.869 1147.85 527.26 1145.75 527.26C1143.76 527.26 1141.77 528.145 1139.77 529.916C1137.78 531.687 1135.9 532.572 1134.13 532.572H1105.91C1103.48 532.572 1102.26 531.41 1102.26 529.086C1102.26 526.651 1103.09 524.106 1104.75 521.45C1106.52 518.683 1109.01 515.972 1112.22 513.316C1115.54 510.66 1120.13 508.447 1126 506.676C1131.97 504.905 1138.61 504.02 1145.92 504.02C1160.75 504.02 1171.87 507.119 1179.28 513.316C1186.7 519.513 1190.4 528.367 1190.4 539.876V587.518C1190.4 588.735 1189.96 589.787 1189.08 590.672C1188.19 591.557 1187.14 592 1185.92 592H1156.87C1155.65 592 1154.6 591.557 1153.72 590.672C1152.83 589.787 1152.39 588.735 1152.39 587.518V582.87C1147.19 590.063 1139.61 593.66 1129.65 593.66C1119.69 593.66 1111.66 591.17 1105.58 586.19C1099.6 581.099 1096.61 574.791 1096.61 567.266ZM1140.27 569.092C1147.47 569.092 1151.06 564.776 1151.06 556.144L1141.27 558.302C1136.4 559.409 1133.96 561.456 1133.96 564.444C1133.96 565.772 1134.52 566.879 1135.62 567.764C1136.73 568.649 1138.28 569.092 1140.27 569.092ZM1261.04 592H1234.48C1232.16 592 1230.33 590.617 1229 587.85L1197.13 510.992C1197.02 510.66 1196.97 510.107 1196.97 509.332C1196.97 508.557 1197.35 507.783 1198.13 507.008C1198.9 506.233 1199.84 505.846 1200.95 505.846H1229C1231.66 505.846 1233.49 507.174 1234.48 509.83L1247.76 548.342L1261.04 509.664C1262.04 507.008 1263.86 505.68 1266.52 505.68H1294.57C1295.68 505.68 1296.62 506.067 1297.4 506.842C1298.17 507.617 1298.56 508.391 1298.56 509.166C1298.56 509.941 1298.5 510.494 1298.39 510.826L1266.52 587.85C1265.19 590.617 1263.37 592 1261.04 592ZM1393.61 558.634H1344.14V559.464C1344.14 566.215 1346.3 569.59 1350.62 569.59C1351.83 569.59 1353.33 568.705 1355.1 566.934C1356.87 565.163 1358.81 564.278 1360.91 564.278H1392.28C1394.72 564.278 1395.93 565.495 1395.93 567.93C1395.93 573.353 1391.84 578.997 1383.65 584.862C1375.57 590.727 1364.56 593.66 1350.62 593.66C1336.78 593.66 1325.44 590.063 1316.59 582.87C1307.84 575.566 1303.47 565.551 1303.47 552.824V544.856C1303.47 532.793 1307.95 522.999 1316.92 515.474C1325.88 507.838 1337.61 504.02 1352.11 504.02C1366.72 504.02 1378.01 508.281 1385.97 516.802C1394.05 525.323 1398.09 536.113 1398.09 549.172V554.152C1398.09 555.369 1397.65 556.421 1396.76 557.306C1395.88 558.191 1394.83 558.634 1393.61 558.634ZM1357.42 537.22C1357.42 530.58 1355.21 527.26 1350.78 527.26C1346.36 527.26 1344.14 530.58 1344.14 537.22V537.884H1357.42V537.22Z" fill="#0D52DE"/>
</g>
<defs>
<clipPath id="clip0_972_801">
<rect width="1920" height="1080" fill="white"/>
</clipPath>
</defs>
</svg>
